<?xml version="1.0" encoding="utf-8"?>
<!-- Generator: Adobe Illustrator 22.0.1, SVG Export Plug-In . SVG Version: 6.00 Build 0)  -->
<svg version="1.1" id="Layer_1" xmlns="http://www.w3.org/2000/svg" xmlns:xlink="http://www.w3.org/1999/xlink" x="0px" y="0px"
	 viewBox="0 0 338 153" style="enable-background:new 0 0 338 153;" xml:space="preserve">
<style type="text/css">
	.st0{enable-background:new    ;}
	.st1{fill:#E7E3D1;}
</style>
<g class="st0">
	<g>
		<path class="st1" d="M37.9,134.4l-0.5-0.6C22.2,118,13.2,93.2,13.2,67.5c0-36,16.9-57.6,24.2-65.2l0.5-0.6l11.2,6l-0.9,0.9
			c-9.5,10.5-20.9,29.2-20.9,58.8c0,23.5,7.6,45.3,20.9,60l0.9,0.9L37.9,134.4z M38.3,4.2c-7.4,7.9-23.1,28.8-23.1,63.3
			c0,36.2,17,57.9,23.1,64.4l7.6-4.1c-13.1-15-20.6-36.9-20.6-60.3c0-29.4,11-48.3,20.6-59.2L38.3,4.2z"/>
	</g>
	<g>
		<path class="st1" d="M70.2,114H55.5V12.4h40.2c22.8,0,35.8,10.9,35.8,29.8c0,19-13.4,30.4-35.8,30.4H70.2V114z M57.5,112h10.7
			V70.5h27.5c21.2,0,33.8-10.6,33.8-28.4c0-17.7-12.3-27.8-33.8-27.8H57.5V112z M97.4,61H68.2V23.9h29.2c14,0,21.2,6.1,21.2,18.3
			C118.6,54.3,111.1,61,97.4,61z M70.2,59h27.2c8.7,0,19.2-2.9,19.2-16.9c0-11-6.3-16.3-19.2-16.3H70.2V59z"/>
	</g>
	<g>
		<path class="st1" d="M153.3,114h-14.1V7.7h14.1V114z M141.2,112h10.1V9.7h-10.1V112z"/>
	</g>
	<g>
		<path class="st1" d="M189.7,115.7c-14.6,0-24-8.8-24-22.3c0-17.2,17.8-20.8,28.4-23c11.3-2.4,16.3-3.7,16.3-8.8
			c0-6.7-6-11.5-14.3-11.5c-5.9,0-16.2,2.4-18.9,18.2l-0.2,1.5l-13.1-7.9l0.2-0.7c3.9-14,16.8-23.3,32.1-23.3
			c17.8,0,28.4,9.9,28.4,26.5v33.3c0,7.9,0.7,11.3,1.7,15.3l0.3,1.2h-11.7l-0.3-0.5c-1.9-3.3-2.6-5.5-3-8.1
			C208.6,109.2,201.7,115.7,189.7,115.7z M196.2,48.1c9.4,0,16.3,5.7,16.3,13.5c0,7-6.7,8.4-17.9,10.8c-13.6,2.8-26.9,6.7-26.9,21.1
			c0,12.5,8.4,20.3,22,20.3c13.1,0,19.8-8.5,21.5-11.1l0.3-0.4h1.7l0.1,0.9c0.4,3.1,0.7,5.3,2.8,8.9h7.9c-0.9-3.6-1.5-7.2-1.5-14.6
			V64.2c0-7.4-2.6-24.5-26.4-24.5c-14.1,0-26,8.5-29.9,21.1l9.3,5.6C178,54.8,185.5,48.1,196.2,48.1z M192,105.4
			c-8.8,0-14.2-4.6-14.2-11.9c0-9.4,10-11.6,18.8-13.5l0.1,0c6.2-1.4,12.2-3.2,14.5-6.6l1.8-2.7v14.2
			C213.1,94.8,205.7,105.4,192,105.4z M211.1,76.4c-3,2.5-7.8,4-13.9,5.4l-0.1,0c-8.5,1.8-17.2,3.7-17.2,11.5
			c0,6.2,4.6,9.9,12.2,9.9c9.2,0,19-6.5,19-18.6V76.4z"/>
	</g>
	<g>
		<path class="st1" d="M244.4,144.1l-11.6-10.3l1.8-0.5c9.6-2.7,16.2-9,19.2-18.1l0.6-2.1l-27.2-73.8h15l19,55.2
			c1.2-3.7,3.6-11.1,5.6-17.2l12.3-38h14.4L267,116.3c-3.2,9.2-8.9,22.1-22,27.5L244.4,144.1z M236.8,134.7l8,7
			c12-5.3,17.3-17.4,20.3-26.1l25.5-74.3h-10.1L268.6,78c-2.7,8.5-6.3,19.6-6.3,19.6l-0.2,0.7h-1.7l-7-20.3l-12.6-36.6H230
			l26.4,71.7l-0.8,2.8C252.6,125.1,246.1,131.6,236.8,134.7z"/>
	</g>
	<g>
		<path class="st1" d="M300.8,134.4l-11.2-6l0.9-0.9c13.3-14.6,20.9-36.5,20.9-60c0-29.6-11.4-48.3-20.9-58.8l-0.9-0.9l11.2-6
			l0.5,0.6c7.3,7.6,24.2,29.2,24.2,65.2c0,25.7-9,50.5-24.2,66.4L300.8,134.4z M292.8,127.8l7.6,4.1c6.1-6.5,23.1-28.2,23.1-64.4
			c0-34.4-15.7-55.4-23.1-63.3l-7.6,4.1c9.6,10.9,20.6,29.8,20.6,59.2C313.4,91,305.9,112.9,292.8,127.8z"/>
	</g>
</g>
</svg>
