<svg version="1.1" class="logo logo--work" xmlns="http://www.w3.org/2000/svg" xmlns:xlink="http://www.w3.org/1999/xlink" x="0px" y="0px"
	 viewBox="0 0 272.2 66.1" style="enable-background:new 0 0 272.2 66.1;" xml:space="preserve">

<path class="st0" d="M50.6,64.2h-9.1l-8.7-33l-8.4,33h-9.1l-13.6-47h10l8.2,33.5
	l8.3-33.5H38l8.4,33.4L55,17.2h9.2L50.6,64.2z M42.7,62.7h6.8l12.8-44h-6.1L47,53.8l-1.5,0l-8.8-35.1h-7.4L20.6,54l-1.5,0l-8.6-35.3
	H3.8l12.7,44h6.8l9.5-37.5L42.7,62.7z M85.9,65.8c-6.4,0-11.6-2.2-15.4-6.6c-3.8-4.3-5.7-10.2-5.7-17.5c0-7.8,2-14.1,6-18.7
	c4-4.7,9.4-7.1,16.1-7.1c6,0,11.1,2,15.3,6.1l0,0c4.2,4,6.3,10,6.3,17.8c0,7.5-1.8,13.7-5.5,18.6C99.3,63.3,93.6,65.8,85.9,65.8z
	 M86.9,17.4c-6.2,0-11.3,2.2-15,6.5c-3.7,4.4-5.6,10.3-5.6,17.8c0,6.9,1.8,12.5,5.3,16.6c3.5,4,8.3,6.1,14.2,6.1
	c7.2,0,12.5-2.3,15.9-6.9c3.4-4.6,5.2-10.6,5.2-17.7c0-7.3-2-13-5.8-16.7l0,0C97.3,19.3,92.5,17.4,86.9,17.4z M86.6,59.2
	c-4.8,0-8.4-1.7-10.6-5.2c-2.2-3.3-3.3-7.5-3.3-12.5c0-5.1,1.1-9.6,3.3-13.3c2.2-3.8,5.8-5.7,10.7-5.7c5.5,0,9.4,2.3,11.7,6.7
	c1.4,2.8,2.1,6.4,2.1,10.7c0,4.8-1,9.2-2.9,13.1C95.6,57.1,91.9,59.2,86.6,59.2z M86.7,24c-4.4,0-7.5,1.6-9.4,5c-2,3.4-3,7.6-3,12.5
	c0,4.7,1,8.6,3,11.7c2,3,5,4.5,9.4,4.5c4.7,0,7.9-1.7,9.6-5.3C98,48.7,99,44.5,99,39.9c0-4.1-0.7-7.5-1.9-10C95,26,91.6,24,86.7,24z
	 M124,64.2h-9.1v-47h8.8V23c0.8-1,1.8-2.2,3.1-3.4c2.5-2.3,5.3-3.5,8.5-3.5c0.2,0,0.4,0,0.8,0c0.3,0,0.9,0.1,1.8,0.2l0.7,0.1v9.7
	l-0.9-0.2c-0.4-0.1-0.8-0.1-1.2-0.2c-0.4,0-0.8,0-1.2,0c-3.7,0-6.4,1.1-8.3,3.4c-1.9,2.3-2.9,5-2.9,8.1V64.2z M116.3,62.7h6.1V37.3
	c0-3.4,1.1-6.4,3.3-9c2.2-2.6,5.4-4,9.5-4c0.5,0,0.9,0,1.3,0c0.1,0,0.3,0,0.4,0v-6.5c-0.5,0-0.8-0.1-1.1-0.1c-0.3,0-0.5,0-0.7,0
	c-2.9,0-5.3,1-7.5,3.1c-2.2,2.1-3.6,3.9-4.2,5.3l-1.4-0.3v-7.1h-5.8V62.7z M181.5,64.2h-11.6l-14-22.7l-5.4,5.2v17.5h-8.8V0.3h8.8
	v35.2l18.5-18.3H181L162.6,35L181.5,64.2z M170.8,62.7h8l-18.1-27.9l16.6-16.1h-7.6L149,39V1.8h-5.8v60.9h5.8V46l7.2-6.9L170.8,62.7
	z M219,65.7c-4.4,0-8.1-1.4-10.9-4c-2.8-2.7-4.2-6.1-4.2-10.2c0-4.4,1.4-7.9,4.2-10.4c2.7-2.4,6.4-3.9,10.8-4.5l12.2-1.5
	c1.5-0.2,2.5-0.8,2.9-1.8c0.3-0.6,0.4-1.5,0.4-2.6c0-2.4-0.8-4-2.4-5.1c-1.7-1.1-4.3-1.7-7.5-1.7c-3.7,0-6.4,1-7.9,3
	c-0.8,1.1-1.4,2.8-1.7,5l-0.1,0.7h-8.6l0-0.8c0.1-5.9,2.1-10,5.8-12.4c3.6-2.3,7.8-3.4,12.6-3.4c5.5,0,10,1.1,13.4,3.2
	c3.5,2.2,5.3,5.6,5.3,10.2v26.2c0,0.6,0.1,1.1,0.4,1.5c0.2,0.4,1.2,0.5,2.5,0.3c0.4,0,0.8-0.1,1.3-0.2l0.9-0.2v7.1l-0.5,0.2
	c-1.2,0.3-2.2,0.6-2.8,0.7c-0.7,0.1-1.5,0.1-2.7,0.1c-2.9,0-5-1.1-6.4-3.2c-0.5-0.8-0.9-1.7-1.1-2.9c-1.5,1.6-3.5,3.1-5.9,4.3
	C226,64.9,222.6,65.7,219,65.7z M224.5,22.5c3.6,0,6.4,0.6,8.4,1.9c2.1,1.3,3.1,3.4,3.1,6.3c0,1.4-0.2,2.5-0.6,3.3
	c-0.7,1.5-2.1,2.4-4.1,2.6l0,0L219,38.2c-4.1,0.5-7.5,1.9-10,4.1c-2.5,2.2-3.7,5.3-3.7,9.2c0,3.7,1.2,6.6,3.8,9.1
	c2.5,2.4,5.8,3.6,9.8,3.6c3.4,0,6.5-0.7,9.3-2.2c2.8-1.4,5-3.2,6.5-5.1l1.1-1.4l0.2,1.8c0.2,1.7,0.6,3,1.2,3.9
	c1,1.6,2.7,2.5,5.1,2.5c1,0,1.9,0,2.4-0.1c0.5-0.1,1.2-0.2,2.1-0.5v-4.2c-0.2,0-0.4,0-0.5,0.1c-0.5,0-0.9,0.1-1.2,0.1
	c-1.3,0-2.2-0.4-2.7-1c-0.4-0.6-0.6-1.4-0.6-2.3V29.4c0-4.1-1.5-7-4.6-8.9c-3.2-2-7.5-2.9-12.6-2.9c-4.4,0-8.4,1.1-11.8,3.2
	c-3.1,1.9-4.8,5.4-5.1,10.4h5.7c0.3-2.2,1-3.9,1.9-5C217.2,23.7,220.2,22.5,224.5,22.5z M220.8,59.2c-2.4,0-4.5-0.7-6.2-2.1l0,0
	c-1.8-1.4-2.7-3.4-2.7-5.8c0-3.2,1.3-5.5,3.9-7c1.5-0.8,3.6-1.4,6.5-1.8l4.6-0.6c1.4-0.2,2.8-0.4,4.2-0.8c1.4-0.4,2.5-0.8,3.4-1.4
	l1.2-0.7v7.5c0,5-2.3,8.6-6.8,10.8C226.3,58.6,223.6,59.2,220.8,59.2z M215.5,56c1.5,1.2,3.2,1.7,5.3,1.7c2.6,0,5.1-0.6,7.5-1.8
	c4-1.9,6-5,6-9.5v-4.9c-0.8,0.4-1.7,0.7-2.7,1c-1.5,0.4-3,0.7-4.4,0.9l-4.6,0.6c-2.7,0.4-4.7,0.9-6,1.6c-2.1,1.2-3.2,3.1-3.2,5.7
	C213.4,53.3,214.1,54.8,215.5,56L215.5,56z M264.1,64.9c-3.8,0-6.5-1-7.9-3.1c-1.4-1.9-2-4.5-2-7.5V24.9H248v-7.7h6.2V4.5h9.2v12.7
	h7.3v7.7h-7.3v28.9c0,1.3,0.4,2.1,1.2,2.5c0.3,0.2,1.1,0.4,2.6,0.4c0.4,0,0.7,0,1.2,0c0.4,0,0.9-0.1,1.4-0.1l0.8-0.1V64l-0.5,0.2
	c-0.9,0.3-1.9,0.5-2.9,0.6C266.3,64.8,265.2,64.9,264.1,64.9z M249.5,23.4h6.2v30.9c0,2.7,0.6,5,1.8,6.7c1.1,1.6,3.4,2.4,6.6,2.4
	c1.1,0,2.1-0.1,3-0.2c0.7-0.1,1.4-0.2,2.1-0.4v-4.7c-0.3,0-0.5,0-0.7,0c-2.2,0.1-3.7-0.1-4.5-0.5c-1.3-0.7-2-2-2-3.9V23.4h7.3v-4.7
	h-7.3V6h-6.2v12.7h-6.2V23.4z"/>
</svg>
