<svg version="1.1" id="Layer_1" class="logo logo--work" xmlns="http://www.w3.org/2000/svg" xmlns:xlink="http://www.w3.org/1999/xlink" x="0px" y="0px"
	 viewBox="0 0 272.3 75" style="enable-background:new 0 0 272.3 75;" xml:space="preserve">
<path class="st0" d="M261.1,66.9c-7.3,0-10.9-4.1-10.9-12.1V28.3h-8v-7.8h8v-9.8l8.6-5.5v15.2h11.3v7.8h-11.3v26
	c0,4.5,1.5,4.9,3.1,4.9c2.3,0,3.7-2.8,4-3.7l0.5-1.3l5,7.7l-0.3,0.4C269.3,64.4,265.8,66.9,261.1,66.9z M243.6,26.8h8v28.1
	c0,7.2,3,10.6,9.4,10.6c3.9,0,6.9-1.9,8.5-3.7l-2.9-4.4c-0.8,1.5-2.4,3.4-4.8,3.4c-4.1,0-4.6-3.4-4.6-6.4V26.8h11.3V22h-11.3V8
	l-5.6,3.6V22h-8V26.8z M218.6,66.9c-8.9,0-14.7-5.3-14.7-13.6c0-10.5,10.8-12.7,17.3-14c6.9-1.5,9.8-2.2,9.8-5.2
	c0-4-3.6-6.8-8.5-6.8c-8.2,0-10.6,6.8-11.3,10.9l-0.2,1.1l-8.2-5l0.2-0.6c2.4-8.5,10.2-14.2,19.5-14.2c10.8,0,17.3,6,17.3,16.1v20.1
	c0,4.8,0.4,6.8,1,9.2l0.2,0.9h-7.3l-0.2-0.4c-1.1-1.9-1.5-3.2-1.8-4.6C229.8,63.2,225.6,66.9,218.6,66.9z M222.5,25.7
	c5.8,0,10,3.5,10,8.3c0,4.3-4.1,5.2-10.9,6.6c-8.2,1.7-16.1,4-16.1,12.6c0,7.5,5,12.1,13.2,12.1c7.8,0,11.8-5.1,12.9-6.6l0.2-0.3
	h1.2l0.1,0.7c0.2,1.8,0.4,3.1,1.6,5.3h4.5c-0.5-2.1-0.8-4.3-0.8-8.6V35.6c0-13.2-11-14.6-15.8-14.6c-8.4,0-15.5,5-17.9,12.6l5.4,3.2
	C211.5,29.7,216,25.7,222.5,25.7z M83.9,66.9c-12.3,0-20.6-9.5-20.6-23.7s8.3-23.7,20.6-23.7c12.3,0,20.6,9.5,20.6,23.7
	S96.2,66.9,83.9,66.9z M83.9,21c-11.4,0-19.1,8.9-19.1,22.2s7.7,22.2,19.1,22.2S103,56.5,103,43.2S95.3,21,83.9,21z M184.9,65.8
	h-10.1l-13.3-20.6l-7.3,8.8v11.9h-8.8V1.4h8.8v32.8c0,3.1-0.2,6.4-0.3,8.6c1.3-1.7,3.2-4.3,5-6.4l13.3-15.8h10.8l-15.7,18.2
	L184.9,65.8z M175.6,64.3h6.6l-16.9-25.8L179.6,22h-6.8l-12.8,15.2c-2.9,3.5-6.3,8.2-6.3,8.2l-0.2,0.3H152l0.1-0.8
	c0-0.1,0.5-5.7,0.5-10.8V2.9h-5.8v61.5h5.8V53.4l9-10.7L175.6,64.3z M120.2,65.8h-8.8V20.5h8.9l-0.3,5c2.3-3.6,5.8-5.7,9.9-5.7
	c6.2,0,10.8,5.1,10.8,12.1c0,2.5-0.3,4.5-0.3,4.5l0,0.4l-8.9,5.3l0.4-1.7c0,0,0.8-3.7,0.8-6.4c0-1.8-0.5-6.1-4.8-6.1
	c-6.9,0-7.4,9.3-7.4,12.1V65.8z M112.9,64.3h5.8V40c0-8.4,3.4-13.6,8.9-13.6c3.9,0,6.3,2.9,6.3,7.6c0,1.7-0.3,3.7-0.5,5l5.4-3.2
	c0.1-0.7,0.2-2.2,0.2-4c0-6.1-3.9-10.6-9.3-10.6c-4.6,0-8.2,2.9-10,7.9l-0.2,0.5h-1.5l0.5-7.7h-5.8V64.3z M50.8,65.8h-9.6l-5.7-20.7
	c-1.2-4.4-2.8-10.2-3.6-13.4c-0.8,3.2-2.4,9-3.6,13.4l-5.7,20.7h-9.8L1.9,20.5h9.2l4,18.7c0.9,4.4,2.2,10.8,3,14.5
	c1-3.9,2.8-10.7,3.9-14.6l5.4-18.6h9.1l5.4,18.6c1.3,4.4,3,10.9,3.9,14.6c0.7-3.7,2.1-10.1,3-14.5l4-18.7h8.9L50.8,65.8z M42.3,64.3
	h7.3L59.7,22h-5.8l-3.7,17.5c-1.4,6.5-3.5,17.3-3.6,17.4l-0.1,0.6h-1.4L45,56.9c0-0.1-2.7-10.9-4.6-17.4L35.3,22h-6.9l-5.1,17.6
	c-1.8,6.2-4.4,16.3-4.6,17.3v0.7h-1.5l-0.1-0.6c0-0.1-2.2-10.9-3.6-17.4L9.9,22H3.8l10.1,42.3h7.4l5.4-19.6C28.6,38.3,31,29,31,28.9
	l0.1-0.6h1.3l0.1,0.6c0,0.1,2.5,9.4,4.3,15.8L42.3,64.3z M220,60.6c-5.4,0-8.8-2.8-8.8-7.4c0-5.8,6.1-7.1,11.5-8.3
	c3.8-0.9,7.4-1.9,8.8-4l1.4-2.1V48C232.8,56.2,226.2,60.6,220,60.6z M231.3,43.3c-1.8,1.4-4.7,2.3-8.2,3.1
	c-5.2,1.1-10.4,2.2-10.4,6.8c0,3.7,2.7,5.9,7.3,5.9c5.5,0,11.3-3.9,11.3-11.1V43.3z M83.9,60.6c-8.1,0-13.3-6.9-13.3-17.5
	s5.2-17.5,13.3-17.5c8.1,0,13.3,6.9,13.3,17.5S92,60.6,83.9,60.6z M83.9,27.2c-8.7,0-11.8,8.6-11.8,16s3.1,16,11.8,16
	c8.7,0,11.8-8.6,11.8-16S92.6,27.2,83.9,27.2z"/>
</svg>
