<svg version="1.1" id="Layer_1" class="logo" xmlns="http://www.w3.org/2000/svg" xmlns:xlink="http://www.w3.org/1999/xlink" x="0px" y="0px"
	 viewBox="0 0 231.2 64" style="enable-background:new 0 0 231.2 64;" xml:space="preserve">

<path class="st0" d="M79,18h7.5v44.9H79V18z M79,10.9h7.5V0.4L79,4.1V10.9z M175.4,21.2c-2.8-2.8-6.8-4.3-11.7-4.3
	c-5-0.1-9.8,2.3-12.7,6.4V0h-7.5v62.9h7.5V38.4c0-6.1,1-8.7,3.4-11.3c2.1-2.2,5-3.4,8-3.4c3.2,0,5.6,0.9,7.6,3.1
	c1.8,2,2.5,4.6,2.5,9.2v26.9h7.5V34.1C179.9,27.8,178.5,24.3,175.4,21.2z M221.9,0v23.3c-3.2-4.3-7.8-6.4-13.4-6.4
	c-8.7,0-19.4,6.6-19.4,23.6c0,14.5,8.3,23.4,19.4,23.4c5.4,0,11.1-2.2,14.1-8.1c0,2.4,0.3,4.7,0.8,7h7.8c0,0-1.8-7.1-1.8-22.4V0
	H221.9z M209.4,57.6c-7.6,0-12.8-6.6-12.8-17.1c0-9.5,4.5-17.1,12.8-17.1c8,0,12.8,7.1,12.8,17.1C222.3,51.1,216.9,57.6,209.4,57.6
	L209.4,57.6z M29.6,50.6c0-1.2-0.4-2.4-1.1-3.4c-1.3-1.6-3.2-2.4-6.4-3.2c-1.8-0.4-3-0.7-4.6-1c-3.8-0.8-7.8-1.8-10.7-3.6
	c-3.1-1.8-5-5.2-4.9-8.8c0-8,6.6-13.6,16-13.6c9.5,0,15.8,4.4,18.5,10.6l-6.9,4.6c-1-4.9-5.4-9.2-11.8-9.2c-5,0-8.6,2.5-8.6,6.6
	c-0.1,1.2,0.5,2.5,1.4,3.3c1.7,1.5,4,2.1,7.7,3c1.6,0.4,3.3,0.7,4.9,1.1c7.5,1.7,10.9,3.9,12.9,7.6c0.8,1.7,1.3,3.6,1.2,5.5
	c0,8.2-6.7,13.8-17.3,13.8C9.4,63.9,2.6,59.8,0,51.4l6.8-4.6c1.6,7.7,6.4,11.1,13,11.1C25.6,57.8,29.6,54.9,29.6,50.6z M60.1,64
	c-2.8,0-5.5-0.7-7.3-2.4c-2-1.9-3.1-4.2-3.1-9.2V23.9h-8.2V18h8.2V5.6l7.5-3.7V18h11.6v5.9H57.1v27.9c-0.1,1.5,0.2,3.1,1,4.4
	c0.6,0.9,1.7,1.4,2.8,1.4c2.4,0,4.2-1.8,5.2-4.3l4,6.1C67.6,62.5,63.9,64.2,60.1,64z M134.8,50.9l-7.3-4.6
	c-0.9,7.7-5.4,11.3-11,11.3c-7.5,0-12.5-6.3-12.5-17.1c0-10.4,4.7-17.1,12.5-17.1c5.6,0,10.2,3.9,11,11.2l7.3-4.7
	c-3-8.5-9.7-13-18.3-13c-12.3,0-20,9.8-20,23.5c0,15.1,8.1,23.5,20.3,23.5C125.6,64,132,59.2,134.8,50.9z"/>
</svg>
